<svg width="94" height="94" viewBox="0 0 94 94" fill="none" xmlns="http://www.w3.org/2000/svg">
<path d="M46.875 0C21.027 0 0 21.027 0 46.875C0 72.723 21.027 93.75 46.875 93.75C72.723 93.75 93.75 72.723 93.75 46.875C93.75 21.027 72.723 0 46.875 0ZM76.934 37.215L42.684 71.465C41.5043 72.6447 39.934 73.2931 38.266 73.2931C36.598 73.2931 35.0277 72.6447 33.848 71.465L18.379 55.996C17.1993 54.8163 16.5509 53.246 16.5509 51.578C16.5509 49.91 17.1993 48.3397 18.379 47.16C19.5587 45.9764 21.129 45.328 22.797 45.328C24.465 45.328 26.0353 45.9803 27.215 47.16L38.266 58.211L68.098 28.379C70.4574 26.0196 74.5746 26.0196 76.9339 28.379C78.1175 29.5626 78.7659 31.129 78.7659 32.797C78.7659 34.465 78.1176 36.0314 76.934 37.215Z" fill="#0092B8"/>
</svg>
